<svg width="48" height="44" viewBox="0 0 48 44" fill="none" xmlns="http://www.w3.org/2000/svg">
<path d="M39 43.9392H8.5C3.8 43.9392 0 40.4166 0 36.0598V7.87939C0 3.52255 3.8 0 8.5 0H39C43.7 0 47.5 3.52255 47.5 7.87939V36.1525C47.4 40.4166 43.6 43.9392 39 43.9392Z" fill="#008AA7"/>
<path d="M14.6133 14.1924L22.2447 22.1869C22.679 22.647 23.2995 22.877 23.982 22.877C24.6644 22.877 25.2849 22.5895 25.7192 22.1869L33.1645 14.3074C33.2266 14.2499 33.2886 14.1924 33.3506 14.1349C33.0404 14.0198 32.6682 13.9048 32.2959 13.9048H15.5439C15.2337 13.9623 14.9235 14.0198 14.6133 14.1924Z" fill="white"/>
<path d="M34.5914 15.1125C34.5294 15.17 34.5294 15.285 34.4673 15.3425L26.8979 23.222C26.1534 24.0272 25.0986 24.4298 23.9818 24.4298C22.865 24.4298 21.8103 23.9697 21.0658 23.222L13.4343 15.17C13.4343 15.17 13.4343 15.1125 13.3723 15.1125C13.1241 15.4576 13 15.9177 13 16.3778V27.248C13 28.5708 14.1788 29.6636 15.6059 29.6636H32.3578C33.7848 29.6636 34.9637 28.5708 34.9637 27.248V16.3778C34.9637 15.9177 34.8396 15.4576 34.5914 15.1125Z" fill="white"/>
</svg>
