<svg width="44" height="31" viewBox="0 0 44 31" fill="none" xmlns="http://www.w3.org/2000/svg">
<path d="M3.1748 0.565698L18.1871 16.2921C19.0414 17.1972 20.2619 17.6498 21.6045 17.6498C22.9471 17.6498 24.1676 17.0841 25.0219 16.2921L39.6681 0.791978C39.7901 0.678838 39.9122 0.565698 40.0342 0.452559C39.424 0.226279 38.6917 0 37.9594 0H5.00557C4.39532 0.11314 3.78506 0.226279 3.1748 0.565698Z" fill="white"/>
<path d="M42.4738 2.37561C42.3517 2.48875 42.3517 2.71503 42.2297 2.82817L27.3394 18.3283C25.8748 19.9123 23.7999 20.7042 21.603 20.7042C19.4061 20.7042 17.3312 19.7991 15.8666 18.3283L0.854354 2.48875C0.854354 2.48875 0.854355 2.37561 0.732304 2.37561C0.2441 3.05445 0 3.95957 0 4.86468V26.2481C0 28.8503 2.31897 31 5.12614 31H38.0799C40.8871 31 43.2061 28.8503 43.2061 26.2481V4.86468C43.2061 3.95957 42.962 3.05445 42.4738 2.37561Z" fill="white"/>
</svg>
