<svg width="48" height="44" viewBox="0 0 48 44" fill="none" xmlns="http://www.w3.org/2000/svg">
<path d="M39 43.9392H8.5C3.8 43.9392 0 40.4166 0 36.0598V7.87939C0 3.52255 3.8 0 8.5 0H39C43.7 0 47.5 3.52255 47.5 7.87939V36.1525C47.4 40.4166 43.6 43.9392 39 43.9392Z" fill="#117BB8"/>
<path d="M17.9 17.0567H13V31.7958H17.9V17.0567Z" fill="white"/>
<path d="M15.4 15.2027C17 15.2027 18.3 13.9976 18.3 12.5144C18.3 11.0313 17 9.82617 15.4 9.82617C13.8 9.82617 12.5 11.0313 12.5 12.5144C12.5 13.9976 13.8 15.2027 15.4 15.2027Z" fill="white"/>
<path d="M25.7 24.1017C25.7 22.0623 26.7 20.7645 28.7 20.7645C30.5 20.7645 31.4 21.9696 31.4 24.1017C31.4 26.2338 31.4 31.7957 31.4 31.7957H36.3C36.3 31.7957 36.3 26.4191 36.3 22.5258C36.3 18.6325 33.9 16.6858 30.5 16.6858C27.1 16.6858 25.7 19.096 25.7 19.096V17.1493H21V31.8884H25.7C25.7 31.7957 25.7 26.3265 25.7 24.1017Z" fill="white"/>
</svg>
