<svg width="34" height="32" viewBox="0 0 34 32" fill="none" xmlns="http://www.w3.org/2000/svg">
<path fill-rule="evenodd" clip-rule="evenodd" d="M32.3041 22.6734C31.4402 22.2521 27.3214 20.2079 26.55 19.927C25.7787 19.6462 25.208 19.5057 24.6526 20.3484C24.0972 21.191 22.4003 23.0792 21.9838 23.6409C21.5673 24.2027 20.9966 24.2807 20.1481 23.8594C17.6644 22.8735 15.372 21.4526 13.3759 19.6618C11.5575 17.9576 9.998 15.991 8.748 13.8257C8.26978 12.983 8.748 12.5305 9.11823 12.1091C9.48847 11.6878 9.95126 11.1105 10.3832 10.6267C10.5066 10.4863 10.5992 10.3458 10.6917 10.221C10.8914 9.89666 11.0667 9.55761 11.2162 9.2067C11.3377 8.97898 11.4014 8.72426 11.4014 8.46548C11.4014 8.2067 11.3377 7.95199 11.2162 7.72426C11.0157 7.30294 9.31878 3.15212 8.62459 1.48243C7.9304 -0.187255 7.22079 0.0936281 6.72715 0.0936281C6.2335 0.0936281 5.67815 0 5.18451 0C4.75951 0.0114291 4.34143 0.111587 3.95651 0.294187C3.57159 0.476787 3.22813 0.73789 2.94768 1.06111C1.9983 1.96458 1.24584 3.0586 0.73847 4.27315C0.231102 5.4877 -0.0199974 6.79602 0.00124344 8.11438C0.0128347 9.09221 0.158195 10.0637 0.433183 11.0012C1.03807 13.0953 1.99287 15.0692 3.25621 16.8373C3.67272 17.3835 9.07196 26.2001 17.6182 29.6019C26.1644 33.0037 26.1952 31.8333 27.7379 31.6929C29.2805 31.5525 32.7206 29.6643 33.3994 27.6825C33.951 26.4187 34.1278 25.0201 33.9084 23.6565C33.6925 23.3132 33.1988 23.0792 32.3041 22.6734Z" fill="white"/>
</svg>
